<svg xmlns="http://www.w3.org/2000/svg" width="77" height="77" viewBox="0 0 77 77">
  <defs>
    <style>
      .cls-1 {
        fill: #2283ca;
        fill-rule: evenodd;
      }
    </style>
  </defs>
  <path class="cls-1" d="M71.674,34.051L68.6,37.083c-0.014-.667-0.033-1.263-0.057-1.57C67.257,18.736,52.885,5.595,35.83,5.595A32.649,32.649,0,0,0,3.017,38,32.9,32.9,0,0,0,56.025,63.547L53.139,59.9A28.2,28.2,0,0,1,7.7,38a28.141,28.141,0,0,1,56.169-2.137C63.889,36.06,63.9,36.49,63.914,37l-2.989-2.952-3.314,3.273L66.3,45.906l8.689-8.581Z"/>
</svg>
